<svg width="373" height="63" viewBox="0 0 373 63" fill="none" xmlns="http://www.w3.org/2000/svg">
<rect width="373" height="63" rx="28" fill="#D9D9D9"/>
<path d="M148.527 40.1484C147.346 40.1484 146.394 39.7804 145.67 39.0444C144.952 38.3084 144.594 37.2786 144.594 35.9551V28.4219C144.594 26.8385 144.906 25.6263 145.531 24.7852C146.162 23.944 147.185 23.5234 148.602 23.5234C149.375 23.5234 150.061 23.6657 150.661 23.9502C151.267 24.2347 151.743 24.6615 152.09 25.2305C152.436 25.7933 152.609 26.5046 152.609 27.3643V30.1846H149.362V27.7725C149.362 27.2839 149.3 26.9561 149.177 26.7891C149.053 26.6159 148.861 26.5293 148.602 26.5293C148.299 26.5293 148.094 26.6406 147.989 26.8633C147.884 27.0798 147.832 27.3704 147.832 27.7354V35.9087C147.832 36.3602 147.896 36.6787 148.026 36.8643C148.162 37.0498 148.354 37.1426 148.602 37.1426C148.88 37.1426 149.075 37.0282 149.186 36.7993C149.304 36.5705 149.362 36.2736 149.362 35.9087V32.9678H152.646V36.0571C152.646 37.492 152.285 38.5342 151.561 39.1836C150.837 39.8268 149.826 40.1484 148.527 40.1484ZM157.638 40.1484C156.333 40.1484 155.334 39.7557 154.641 38.9702C153.955 38.1785 153.611 37.0374 153.611 35.5469V27.791C153.611 26.3932 153.951 25.3325 154.632 24.6089C155.318 23.8853 156.32 23.5234 157.638 23.5234C158.955 23.5234 159.954 23.8853 160.634 24.6089C161.321 25.3325 161.664 26.3932 161.664 27.791V35.5469C161.664 37.0374 161.318 38.1785 160.625 38.9702C159.938 39.7557 158.943 40.1484 157.638 40.1484ZM157.666 37.1426C158.16 37.1426 158.408 36.6632 158.408 35.7046V27.7354C158.408 26.9313 158.167 26.5293 157.684 26.5293C157.14 26.5293 156.868 26.9406 156.868 27.7632V35.7231C156.868 36.2303 156.93 36.5952 157.053 36.8179C157.177 37.0343 157.381 37.1426 157.666 37.1426ZM162.981 40V23.6719H166.34L167.843 31.4927V23.6719H170.997V40H167.806L166.173 31.8359V40H162.981ZM172.444 40V23.6719H175.803L177.306 31.4927V23.6719H180.46V40H177.269L175.636 31.8359V40H172.444ZM181.907 40V23.6719H188.438V26.8262H185.229V30.0083H188.309V33.0791H185.229V36.8179H188.652V40H181.907ZM189.264 40L191.018 31.3442L189.626 23.6626H192.817L193.662 29.2754L194.413 23.6626H197.614L196.222 31.3442L197.966 40H194.664L193.634 33.6172L192.576 40H189.264ZM198.792 40V23.6719H201.946V40H198.792ZM207.142 40.1484C205.837 40.1484 204.838 39.7557 204.145 38.9702C203.458 38.1785 203.115 37.0374 203.115 35.5469V27.791C203.115 26.3932 203.455 25.3325 204.136 24.6089C204.822 23.8853 205.824 23.5234 207.142 23.5234C208.459 23.5234 209.458 23.8853 210.138 24.6089C210.825 25.3325 211.168 26.3932 211.168 27.791V35.5469C211.168 37.0374 210.822 38.1785 210.129 38.9702C209.442 39.7557 208.447 40.1484 207.142 40.1484ZM207.169 37.1426C207.664 37.1426 207.912 36.6632 207.912 35.7046V27.7354C207.912 26.9313 207.67 26.5293 207.188 26.5293C206.644 26.5293 206.372 26.9406 206.372 27.7632V35.7231C206.372 36.2303 206.433 36.5952 206.557 36.8179C206.681 37.0343 206.885 37.1426 207.169 37.1426ZM212.485 40V23.6719H215.844L217.347 31.4927V23.6719H220.501V40H217.31L215.677 31.8359V40H212.485Z" fill="black"/>
</svg>
