<svg width="373" height="63" viewBox="0 0 373 63" fill="none" xmlns="http://www.w3.org/2000/svg">
<rect width="373" height="63" rx="28" fill="#D9D9D9"/>
<path d="M144.575 40V23.6719H147.729V40H144.575ZM149.028 40V23.6719H152.387L153.89 31.4927V23.6719H157.044V40H153.853L152.22 31.8359V40H149.028ZM162.369 40.1484C160.879 40.1484 159.802 39.7773 159.141 39.0352C158.485 38.293 158.157 37.1117 158.157 35.4912V33.8955H161.386V35.9365C161.386 36.3138 161.441 36.6107 161.553 36.8271C161.67 37.0374 161.871 37.1426 162.156 37.1426C162.453 37.1426 162.657 37.056 162.768 36.8828C162.886 36.7096 162.944 36.4251 162.944 36.0293C162.944 35.5283 162.895 35.1108 162.796 34.7769C162.697 34.4367 162.524 34.1151 162.276 33.812C162.035 33.5028 161.698 33.144 161.265 32.7358L159.799 31.3442C158.705 30.3114 158.157 29.13 158.157 27.8003C158.157 26.4087 158.479 25.348 159.122 24.6182C159.771 23.8883 160.708 23.5234 161.933 23.5234C163.43 23.5234 164.491 23.9224 165.115 24.7202C165.746 25.5181 166.062 26.7303 166.062 28.3569H162.74V27.2344C162.74 27.0117 162.675 26.8385 162.545 26.7148C162.422 26.5911 162.252 26.5293 162.035 26.5293C161.775 26.5293 161.584 26.6035 161.46 26.752C161.342 26.8942 161.284 27.0798 161.284 27.3086C161.284 27.5374 161.346 27.7848 161.469 28.0508C161.593 28.3167 161.837 28.6229 162.202 28.9692L164.085 30.7783C164.463 31.137 164.809 31.5174 165.125 31.9194C165.44 32.3153 165.694 32.7791 165.885 33.311C166.077 33.8368 166.173 34.48 166.173 35.2407C166.173 36.7746 165.888 37.9775 165.319 38.8496C164.757 39.7155 163.773 40.1484 162.369 40.1484ZM171.071 40.1484C169.89 40.1484 168.938 39.7804 168.214 39.0444C167.496 38.3084 167.138 37.2786 167.138 35.9551V28.4219C167.138 26.8385 167.45 25.6263 168.075 24.7852C168.706 23.944 169.729 23.5234 171.146 23.5234C171.919 23.5234 172.605 23.6657 173.205 23.9502C173.811 24.2347 174.287 24.6615 174.634 25.2305C174.98 25.7933 175.153 26.5046 175.153 27.3643V30.1846H171.906V27.7725C171.906 27.2839 171.844 26.9561 171.721 26.7891C171.597 26.6159 171.405 26.5293 171.146 26.5293C170.842 26.5293 170.638 26.6406 170.533 26.8633C170.428 27.0798 170.375 27.3704 170.375 27.7354V35.9087C170.375 36.3602 170.44 36.6787 170.57 36.8643C170.706 37.0498 170.898 37.1426 171.146 37.1426C171.424 37.1426 171.619 37.0282 171.73 36.7993C171.847 36.5705 171.906 36.2736 171.906 35.9087V32.9678H175.19V36.0571C175.19 37.492 174.829 38.5342 174.105 39.1836C173.381 39.8268 172.37 40.1484 171.071 40.1484ZM176.285 40V23.6719H181.295C182.13 23.6719 182.761 23.8636 183.188 24.2471C183.614 24.6243 183.899 25.1562 184.041 25.8428C184.189 26.5231 184.264 27.3241 184.264 28.2456C184.264 29.1362 184.149 29.8475 183.92 30.3794C183.698 30.9113 183.274 31.2793 182.649 31.4834C183.163 31.5885 183.521 31.8452 183.726 32.2534C183.936 32.6554 184.041 33.1781 184.041 33.8213V40H180.822V33.6079C180.822 33.1317 180.723 32.8379 180.525 32.7266C180.333 32.609 180.021 32.5503 179.588 32.5503V40H176.285ZM179.606 29.7207H180.395C180.847 29.7207 181.072 29.229 181.072 28.2456C181.072 27.6086 181.023 27.1911 180.924 26.9932C180.825 26.7952 180.639 26.6963 180.367 26.6963H179.606V29.7207ZM185.191 40V23.6719H188.346V40H185.191ZM189.645 40V23.6719H193.958C194.861 23.6719 195.576 23.8729 196.102 24.2749C196.633 24.6769 197.014 25.249 197.243 25.9912C197.472 26.7334 197.586 27.6178 197.586 28.6445C197.586 29.6341 197.49 30.4969 197.298 31.2329C197.107 31.9627 196.763 32.5286 196.269 32.9307C195.78 33.3327 195.084 33.5337 194.181 33.5337H192.854V40H189.645ZM192.854 30.6021H193.04C193.646 30.6021 194.017 30.432 194.153 30.0918C194.289 29.7516 194.357 29.2507 194.357 28.5889C194.357 27.9704 194.289 27.4941 194.153 27.1602C194.023 26.82 193.711 26.6499 193.216 26.6499H192.854V30.6021ZM200.026 40V26.8076H198.087V23.6719H205.23V26.8076H203.292V40H200.026ZM205.991 40V23.6719H209.146V40H205.991ZM214.341 40.1484C213.036 40.1484 212.037 39.7557 211.344 38.9702C210.658 38.1785 210.314 37.0374 210.314 35.5469V27.791C210.314 26.3932 210.655 25.3325 211.335 24.6089C212.021 23.8853 213.023 23.5234 214.341 23.5234C215.658 23.5234 216.657 23.8853 217.337 24.6089C218.024 25.3325 218.367 26.3932 218.367 27.791V35.5469C218.367 37.0374 218.021 38.1785 217.328 38.9702C216.642 39.7557 215.646 40.1484 214.341 40.1484ZM214.369 37.1426C214.863 37.1426 215.111 36.6632 215.111 35.7046V27.7354C215.111 26.9313 214.87 26.5293 214.387 26.5293C213.843 26.5293 213.571 26.9406 213.571 27.7632V35.7231C213.571 36.2303 213.633 36.5952 213.756 36.8179C213.88 37.0343 214.084 37.1426 214.369 37.1426ZM219.685 40V23.6719H223.043L224.546 31.4927V23.6719H227.7V40H224.509L222.876 31.8359V40H219.685Z" fill="black"/>
</svg>
